<svg width="20" height="20" viewBox="0 0 20 20" fill="none" xmlns="http://www.w3.org/2000/svg">
<path fill-rule="evenodd" clip-rule="evenodd" d="M8.19083 7.8075H11.2858V9.34917C11.7317 8.4625 12.875 7.66583 14.5925 7.66583C17.885 7.66583 18.6667 9.43083 18.6667 12.6692V18.6667H15.3333V13.4067C15.3333 11.5625 14.8875 10.5225 13.7525 10.5225C12.1783 10.5225 11.5242 11.6433 11.5242 13.4058V18.6667H8.19083V7.8075ZM2.475 18.525H5.80833V7.66583H2.475V18.525ZM6.28583 4.125C6.28596 4.4044 6.23055 4.68103 6.12282 4.93882C6.0151 5.19662 5.85721 5.43043 5.65833 5.62667C5.25533 6.02719 4.70984 6.25138 4.14167 6.25C3.57449 6.24962 3.03026 6.026 2.62667 5.6275C2.42851 5.43059 2.27115 5.19652 2.16362 4.93869C2.05608 4.68087 2.00048 4.40435 2 4.125C2 3.56083 2.225 3.02083 2.6275 2.6225C3.03074 2.22347 3.5752 1.99975 4.1425 2C4.71083 2 5.25583 2.22417 5.65833 2.6225C6.06 3.02083 6.28583 3.56083 6.28583 4.125Z" fill="white"/>
</svg>
