<svg width="20" height="20" viewBox="0 0 20 20" fill="none" xmlns="http://www.w3.org/2000/svg">
<path d="M9.99982 6.14746C8.97785 6.14746 7.99774 6.55344 7.2751 7.27608C6.55246 7.99872 6.14648 8.97883 6.14648 10.0008C6.14648 11.0228 6.55246 12.0029 7.2751 12.7255C7.99774 13.4482 8.97785 13.8541 9.99982 13.8541C11.0218 13.8541 12.0019 13.4482 12.7245 12.7255C13.4472 12.0029 13.8532 11.0228 13.8532 10.0008C13.8532 8.97883 13.4472 7.99872 12.7245 7.27608C12.0019 6.55344 11.0218 6.14746 9.99982 6.14746ZM9.99982 12.5033C9.33589 12.5033 8.69916 12.2396 8.22969 11.7701C7.76023 11.3006 7.49648 10.6639 7.49648 9.99996C7.49648 9.33604 7.76023 8.6993 8.22969 8.22984C8.69916 7.76037 9.33589 7.49663 9.99982 7.49663C10.6637 7.49663 11.3005 7.76037 11.7699 8.22984C12.2394 8.6993 12.5032 9.33604 12.5032 9.99996C12.5032 10.6639 12.2394 11.3006 11.7699 11.7701C11.3005 12.2396 10.6637 12.5033 9.99982 12.5033Z" fill="white"/>
<path d="M14.0058 6.90409C14.5019 6.90409 14.9041 6.50189 14.9041 6.00575C14.9041 5.50962 14.5019 5.10742 14.0058 5.10742C13.5096 5.10742 13.1074 5.50962 13.1074 6.00575C13.1074 6.50189 13.5096 6.90409 14.0058 6.90409Z" fill="white"/>
<path d="M17.1111 5.09273C16.9182 4.59454 16.6234 4.14213 16.2456 3.76444C15.8677 3.38676 15.4152 3.09212 14.917 2.89939C14.3339 2.68053 13.7179 2.56218 13.0953 2.54939C12.2928 2.51439 12.0386 2.50439 10.0036 2.50439C7.96862 2.50439 7.70779 2.50439 6.91195 2.54939C6.28978 2.56153 5.67425 2.6799 5.09195 2.89939C4.59357 3.0919 4.14092 3.38645 3.76306 3.76417C3.38521 4.14188 3.09048 4.59441 2.89779 5.09273C2.67887 5.67574 2.5608 6.29176 2.54862 6.91439C2.51279 7.71606 2.50195 7.97023 2.50195 10.0061C2.50195 12.0411 2.50195 12.3002 2.54862 13.0977C2.56112 13.7211 2.67862 14.3361 2.89779 14.9202C3.09102 15.4184 3.38603 15.8707 3.76398 16.2484C4.14193 16.626 4.59451 16.9207 5.09279 17.1136C5.67398 17.3412 6.28976 17.468 6.91362 17.4886C7.71612 17.5236 7.97029 17.5344 10.0053 17.5344C12.0403 17.5344 12.3011 17.5344 13.097 17.4886C13.7195 17.4759 14.3355 17.3578 14.9186 17.1394C15.4167 16.9462 15.8691 16.6513 16.2469 16.2735C16.6247 15.8957 16.9196 15.4434 17.1128 14.9452C17.332 14.3619 17.4495 13.7469 17.462 13.1236C17.4978 12.3219 17.5086 12.0677 17.5086 10.0319C17.5086 7.99606 17.5086 7.73773 17.462 6.94023C17.4523 6.30879 17.3336 5.68377 17.1111 5.09273ZM16.0961 13.0361C16.0907 13.5163 16.0031 13.9921 15.837 14.4427C15.7118 14.7668 15.5202 15.0611 15.2745 15.3066C15.0288 15.5522 14.7344 15.7436 14.4103 15.8686C13.9646 16.0339 13.4939 16.1216 13.0186 16.1277C12.227 16.1644 12.0036 16.1736 9.97362 16.1736C7.94195 16.1736 7.73445 16.1736 6.92779 16.1277C6.45273 16.1219 5.98222 16.0342 5.53695 15.8686C5.21169 15.7444 4.91612 15.5533 4.66936 15.3077C4.4226 15.0621 4.23015 14.7674 4.10445 14.4427C3.94066 13.9969 3.85305 13.5268 3.84529 13.0519C3.80945 12.2602 3.80112 12.0369 3.80112 10.0069C3.80112 7.97606 3.80112 7.76856 3.84529 6.96106C3.85067 6.48108 3.93833 6.00558 4.10445 5.55523C4.35862 4.89773 4.87945 4.38023 5.53695 4.12856C5.98244 3.96368 6.45281 3.87603 6.92779 3.86939C7.72029 3.83356 7.94279 3.82356 9.97362 3.82356C12.0045 3.82356 12.2128 3.82356 13.0186 3.86939C13.494 3.87511 13.9648 3.96279 14.4103 4.12856C14.7344 4.25379 15.0287 4.4454 15.2744 4.69109C15.5201 4.93678 15.7117 5.23112 15.837 5.55523C16.0007 6.00102 16.0884 6.47119 16.0961 6.94606C16.132 7.73856 16.1411 7.96106 16.1411 9.99189C16.1411 12.0219 16.1411 12.2402 16.1053 13.0369H16.0961V13.0361Z" fill="white"/>
</svg>
