<svg width="32" height="32" viewBox="0 0 32 32" fill="none" xmlns="http://www.w3.org/2000/svg">
<g clip-path="url(#clip0_0_26)">
<path d="M32 2V18.1094C31.7083 17.8177 31.3958 17.5573 31.0625 17.3281C30.7292 17.099 30.375 16.8906 30 16.7031V10H2V26H19L17 28H0V2H32ZM30 8V4H2V8H30ZM22.0469 22.9062C22.0469 22.2188 22.1771 21.5781 22.4375 20.9844C22.6979 20.3906 23.0521 19.875 23.5 19.4375C23.9479 19 24.4688 18.651 25.0625 18.3906C25.6562 18.1302 26.3021 18.0052 27 18.0156C27.6979 18.0156 28.349 18.1458 28.9531 18.4062C29.5573 18.6667 30.0833 19.0208 30.5312 19.4688C30.9792 19.9167 31.3333 20.4479 31.5938 21.0625C31.8542 21.6771 31.9844 22.3281 31.9844 23.0156C31.9844 23.6927 31.8594 24.3281 31.6094 24.9219C31.3594 25.5156 31.0104 26.0417 30.5625 26.5C30.1146 26.9583 29.599 27.3125 29.0156 27.5625C28.4323 27.8125 27.7917 27.9427 27.0938 27.9531C26.5938 27.9531 26.1042 27.8854 25.625 27.75C25.1458 27.6146 24.6927 27.4115 24.2656 27.1406L21.125 30.2812C20.8854 30.5208 20.651 30.7604 20.4219 31C20.1927 31.2396 19.9531 31.474 19.7031 31.7031C19.599 31.7969 19.5 31.8698 19.4062 31.9219C19.3125 31.974 19.1875 32 19.0312 32C18.7604 32 18.5208 31.8958 18.3125 31.6875C18.1042 31.4792 18 31.2396 18 30.9688C18 30.8229 18.026 30.7031 18.0781 30.6094C18.1302 30.5156 18.2031 30.4115 18.2969 30.2969C18.5156 30.0469 18.7448 29.8073 18.9844 29.5781C19.224 29.349 19.4688 29.1146 19.7188 28.875C20.25 28.3438 20.7708 27.8177 21.2812 27.2969C21.7917 26.776 22.3177 26.25 22.8594 25.7188C22.599 25.2917 22.401 24.8438 22.2656 24.375C22.1302 23.9062 22.0573 23.4167 22.0469 22.9062ZM24.0469 23.0938C24.0469 23.4896 24.1198 23.8594 24.2656 24.2031C24.4115 24.5469 24.6146 24.849 24.875 25.1094C25.1354 25.3698 25.4375 25.5729 25.7812 25.7188C26.125 25.8646 26.5 25.9375 26.9062 25.9375C27.3125 25.9375 27.6979 25.8594 28.0625 25.7031C28.4271 25.5469 28.7604 25.3229 29.0625 25.0312C29.3646 24.7396 29.5938 24.4167 29.75 24.0625C29.9062 23.7083 29.9948 23.3229 30.0156 22.9062C30.0156 22.5312 29.9375 22.1719 29.7812 21.8281C29.625 21.4844 29.4062 21.1719 29.125 20.8906C28.8438 20.6094 28.5312 20.3906 28.1875 20.2344C27.8438 20.0781 27.4792 19.9948 27.0938 19.9844C26.6875 19.9844 26.3021 20.0677 25.9375 20.2344C25.5729 20.401 25.25 20.6354 24.9688 20.9375C24.6875 21.2396 24.4635 21.5677 24.2969 21.9219C24.1302 22.276 24.0469 22.6667 24.0469 23.0938Z" fill="#9334EA"/>
</g>
<defs>
<clipPath id="clip0_0_26">
<rect width="32" height="32" fill="white"/>
</clipPath>
</defs>
</svg>
