<svg width="32" height="32" viewBox="0 0 32 32" fill="none" xmlns="http://www.w3.org/2000/svg">
<path d="M7.166 2.09003C7.33701 2.16797 7.48259 2.29252 7.58605 2.44941C7.68952 2.60629 7.74669 2.78915 7.751 2.97703C7.779 4.21703 8.221 5.00003 8.741 5.80703L8.885 6.02703C9.375 6.77003 10.001 7.72003 10.001 9.00003C10.0017 9.5779 9.87688 10.149 9.63516 10.6739C9.39343 11.1988 9.04058 11.6649 8.601 12.04C8.956 12.407 9.216 12.837 9.406 13.279C9.913 14.454 10.001 15.881 10.001 17.006C10.001 18.85 9.713 21.914 9.186 24.529C8.923 25.832 8.591 27.079 8.18 28.023C7.977 28.491 7.73 28.942 7.42 29.292C7.116 29.636 6.643 30 6.004 30C5.364 30 4.891 29.636 4.587 29.292C4.278 28.942 4.031 28.492 3.827 28.023C3.416 27.08 3.082 25.833 2.819 24.529C2.291 21.915 2.001 18.85 2.001 17.006C2.001 15.88 2.091 14.453 2.599 13.277C2.789 12.837 3.049 12.408 3.404 12.042C2.96395 11.6666 2.61055 11.2003 2.36816 10.6751C2.12577 10.1499 2.00017 9.57844 2 9.00003C2 8.06503 2.118 7.07803 2.743 5.94003C3.348 4.83703 4.393 3.65703 6.111 2.23003C6.25574 2.10994 6.43142 2.0331 6.61785 2.00834C6.80429 1.98358 6.99493 2.01189 7.166 2.09003ZM4.497 6.90003C4.084 7.65303 4.001 8.27703 4.001 8.99903C4.001 9.52946 4.21171 10.0382 4.58679 10.4132C4.96186 10.7883 5.47057 10.999 6.001 10.999C6.53143 10.999 7.04014 10.7883 7.41521 10.4132C7.79029 10.0382 8.001 9.52946 8.001 8.99903C8.001 8.34103 7.705 7.88403 7.159 7.04103L7.062 6.89103C6.716 6.35703 6.337 5.73303 6.076 4.94303C5.277 5.72503 4.794 6.36003 4.497 6.90003ZM4.435 14.07C4.099 14.849 4 15.925 4 17.007C4 18.707 4.274 21.638 4.778 24.135C5.032 25.387 5.332 26.474 5.659 27.225C5.787 27.518 5.904 27.726 6.003 27.865C6.13826 27.6638 6.25285 27.4493 6.345 27.225C6.672 26.475 6.972 25.388 7.225 24.135C7.727 21.638 8 18.707 8 17.007C8 15.923 7.903 14.847 7.569 14.072C7.408 13.699 7.212 13.442 6.988 13.278C6.774 13.122 6.472 13.001 6.003 13.001C5.534 13.001 5.231 13.121 5.016 13.279C4.792 13.444 4.595 13.7 4.434 14.073M10.984 6.68303C11.9745 6.20999 13.0623 5.9765 14.1597 6.00142C15.257 6.02635 16.3332 6.30898 17.3011 6.8265C18.2691 7.34403 19.1018 8.08193 19.732 8.98063C20.3622 9.87933 20.7723 10.9136 20.929 12H17.501C16.3077 12 15.1633 12.474 14.3194 13.3177C13.4755 14.1614 13.0013 15.3057 13.001 16.499V19.929C12.4479 19.8493 11.9064 19.7036 11.388 19.495C11.3328 20.1808 11.2631 20.8652 11.179 21.548C11.771 21.7428 12.3816 21.8755 13.001 21.944V24.5C13.001 25.6935 13.4751 26.8381 14.319 27.682C15.1629 28.5259 16.3075 29 17.501 29H25.501C26.6945 29 27.8391 28.5259 28.683 27.682C29.5269 26.8381 30.001 25.6935 30.001 24.5V16.5C30.001 15.3066 29.5269 14.162 28.683 13.3181C27.8391 12.4741 26.6945 12 25.501 12H22.946C22.7852 10.5592 22.2787 9.17845 21.4696 7.9754C20.6605 6.77236 19.5727 5.78259 18.2989 5.09032C17.025 4.39805 15.6028 4.02378 14.1531 3.99936C12.7035 3.97493 11.2695 4.30107 9.973 4.95003L10 4.99203L10.136 5.19703C10.372 5.55003 10.706 6.05203 10.986 6.68003M25.5 14C26.163 14 26.7989 14.2634 27.2678 14.7323C27.7366 15.2011 28 15.837 28 16.5V24.5C28 25.1631 27.7366 25.799 27.2678 26.2678C26.7989 26.7366 26.163 27 25.5 27H17.5C16.837 27 16.2011 26.7366 15.7322 26.2678C15.2634 25.799 15 25.1631 15 24.5V21.945C17.0289 21.7176 18.9202 20.8075 20.3638 19.3639C21.8074 17.9202 22.7176 16.0289 22.945 14H25.5ZM15 19.93V16.5C15 15.837 15.2634 15.2011 15.7322 14.7323C16.2011 14.2634 16.837 14 17.5 14H20.93C20.7144 15.4962 20.0202 16.8824 18.9513 17.9513C17.8824 19.0203 16.4962 19.7144 15 19.93Z" fill="#9334EA"/>
</svg>
