<svg width="32" height="32" viewBox="0 0 32 32" fill="none" xmlns="http://www.w3.org/2000/svg">
<path d="M6.99935 5.3335H24.9993C26.1062 5.33342 27.1711 5.7569 27.9757 6.51706C28.7802 7.27721 29.2633 8.31642 29.326 9.4215L29.3327 9.66683V22.3335C29.3328 23.4403 28.9093 24.5053 28.1491 25.3098C27.389 26.1143 26.3498 26.5975 25.2447 26.6602L24.9993 26.6668H6.99935C5.8925 26.6669 4.82758 26.2434 4.02304 25.4833C3.2185 24.7231 2.73535 23.6839 2.67268 22.5788L2.66602 22.3335V9.66683C2.66594 8.55998 3.08942 7.49506 3.84958 6.69052C4.60973 5.88599 5.64894 5.40283 6.75402 5.34016L6.99935 5.3335ZM27.3327 12.4975L16.466 18.2175C16.3433 18.2823 16.2085 18.3209 16.07 18.3308C15.9316 18.3406 15.7927 18.3216 15.662 18.2748L15.534 18.2188L4.66602 12.4988V22.3335C4.66604 22.9191 4.88624 23.4833 5.28292 23.914C5.6796 24.3448 6.22375 24.6106 6.80735 24.6588L6.99935 24.6668H24.9993C25.5851 24.6668 26.1495 24.4464 26.5803 24.0494C27.0111 23.6525 27.2768 23.108 27.3247 22.5242L27.3327 22.3335V12.4975ZM24.9993 7.3335H6.99935C6.41376 7.33352 5.84959 7.55372 5.41883 7.9504C4.98806 8.34708 4.7222 8.89123 4.67402 9.47483L4.66602 9.66683V10.2388L15.9993 16.2028L27.3327 10.2375V9.66683C27.3326 9.08103 27.1122 8.51668 26.7153 8.08589C26.3183 7.65509 25.7739 7.38936 25.19 7.3415L24.9993 7.3335Z" fill="#9334EA"/>
</svg>
