<svg width="32" height="32" viewBox="0 0 32 32" fill="none" xmlns="http://www.w3.org/2000/svg">
<path d="M24 0H6C4.9 0 4 0.9 4 2V30C4 31.1 4.9 32 6 32H24C25.1 32 26 31.1 26 30V2C26 0.9 25.1 0 24 0ZM15 30.556C14.7911 30.5635 14.5828 30.5288 14.3876 30.454C14.1924 30.3793 14.0143 30.2659 13.8639 30.1208C13.7134 29.9757 13.5938 29.8017 13.5121 29.6093C13.4303 29.4169 13.3882 29.21 13.3882 29.001C13.3882 28.792 13.4303 28.5851 13.5121 28.3927C13.5938 28.2003 13.7134 28.0263 13.8639 27.8812C14.0143 27.7361 14.1924 27.6227 14.3876 27.548C14.5828 27.4732 14.7911 27.4385 15 27.446C15.4028 27.4604 15.7842 27.6306 16.064 27.9206C16.3439 28.2107 16.5002 28.598 16.5002 29.001C16.5002 29.404 16.3439 29.7913 16.064 30.0814C15.7842 30.3714 15.4028 30.5416 15 30.556ZM24 26H6V4H24V26Z" fill="#9334EA"/>
</svg>
