<svg width="32" height="32" viewBox="0 0 32 32" fill="none" xmlns="http://www.w3.org/2000/svg">
<path d="M5.1115 5.27995H11.0982L13.0275 10.1039L9.9275 12.1706C9.74494 12.2924 9.59527 12.4574 9.49177 12.6509C9.38827 12.8444 9.33413 13.0605 9.33416 13.2799C9.33816 13.4053 9.33416 13.2813 9.33416 13.2813V13.3093C9.33495 13.3689 9.33762 13.4285 9.34216 13.4879C9.35016 13.5973 9.3635 13.7453 9.38883 13.9279C9.44083 14.2879 9.54083 14.7839 9.7355 15.3679C10.1275 16.5413 10.8955 18.0599 12.3915 19.5559C13.8875 21.0519 15.4062 21.8199 16.5782 22.2119C17.1635 22.4066 17.6582 22.5053 18.0208 22.5586C18.2255 22.5872 18.4316 22.605 18.6382 22.6119L18.6555 22.6133H18.6662C18.6662 22.6133 18.8155 22.6053 18.6675 22.6133C18.915 22.6131 19.1577 22.5441 19.3682 22.4139C19.5787 22.2837 19.7488 22.0974 19.8595 21.8759L20.7528 20.0893L26.6675 21.0759V26.8359C23.8528 27.2426 16.2502 27.6439 10.2768 21.6706C4.3035 15.6973 4.7035 8.09328 5.1115 5.27995ZM12.0982 13.9279L14.5075 12.3226C15.0165 11.9831 15.3933 11.4789 15.5746 10.8946C15.7559 10.3102 15.7308 9.6813 15.5035 9.11328L13.5742 4.28928C13.3762 3.79449 13.0345 3.37037 12.5931 3.07163C12.1518 2.77289 11.6311 2.61325 11.0982 2.61328H5.04216C3.83016 2.61328 2.69016 3.45461 2.4915 4.76928C2.03816 7.75862 1.4235 16.5879 8.3915 23.556C15.3595 30.5239 24.1888 29.9079 27.1782 29.4559C28.4928 29.2559 29.3342 28.1173 29.3342 26.9053V21.0759C29.3342 20.4447 29.1104 19.8339 28.7024 19.3522C28.2944 18.8705 27.7288 18.5491 27.1062 18.4453L21.1915 17.4599C20.629 17.366 20.0511 17.455 19.5429 17.7137C19.0346 17.9724 18.6226 18.3872 18.3675 18.8973L17.9062 19.8213C17.743 19.7811 17.5816 19.7344 17.4222 19.6813C16.5955 19.4066 15.4475 18.8413 14.2768 17.6706C13.1062 16.4999 12.5408 15.3519 12.2662 14.5239C12.2006 14.3282 12.1449 14.1293 12.0995 13.9279H12.0982Z" fill="#9334EA"/>
</svg>
