<svg width="32" height="32" viewBox="0 0 32 32" fill="none" xmlns="http://www.w3.org/2000/svg">
<path d="M15.9997 2.6665C10.133 2.6665 5.33301 7.4665 5.33301 13.3332C5.33301 20.5332 14.6663 28.6665 15.0663 29.0665C15.333 29.1998 15.733 29.3332 15.9997 29.3332C16.2663 29.3332 16.6663 29.1998 16.933 29.0665C17.333 28.6665 26.6663 20.5332 26.6663 13.3332C26.6663 7.4665 21.8663 2.6665 15.9997 2.6665ZM15.9997 26.2665C13.1997 23.5998 7.99967 17.8665 7.99967 13.3332C7.99967 8.93317 11.5997 5.33317 15.9997 5.33317C20.3997 5.33317 23.9997 8.93317 23.9997 13.3332C23.9997 17.7332 18.7997 23.5998 15.9997 26.2665ZM15.9997 7.99984C13.0663 7.99984 10.6663 10.3998 10.6663 13.3332C10.6663 16.2665 13.0663 18.6665 15.9997 18.6665C18.933 18.6665 21.333 16.2665 21.333 13.3332C21.333 10.3998 18.933 7.99984 15.9997 7.99984ZM15.9997 15.9998C14.533 15.9998 13.333 14.7998 13.333 13.3332C13.333 11.8665 14.533 10.6665 15.9997 10.6665C17.4663 10.6665 18.6663 11.8665 18.6663 13.3332C18.6663 14.7998 17.4663 15.9998 15.9997 15.9998Z" fill="#9334EA"/>
</svg>
