<svg width="23" height="16" viewBox="0 0 23 16" fill="none" xmlns="http://www.w3.org/2000/svg">
<path d="M22.4921 14.7311L20.3579 14.9039C17.6534 15.3845 14.8759 15.256 12.2274 14.5279C10.5301 14.1112 6.597 12.8916 6.1295 12.8103C4.96104 12.5605 3.78057 12.3705 2.59272 12.2412C-0.994854 12.0277 0.824354 10.6862 2.31833 10.7472C4.28998 10.8387 4.95056 10.798 6.46487 10.9098C6.28193 10.8082 5.72297 10.6964 5.71281 10.2594C5.71281 9.19224 7.11532 9.24306 7.11532 9.24306C7.11532 9.24306 5.58067 8.59262 5.7941 7.78974C6.00752 6.98685 7.03402 6.77342 7.68445 6.8344C7.68445 6.8344 6.82059 6.41771 6.86125 5.97053C7.04418 4.2428 10.5911 4.12085 10.5911 4.12085C9.73324 3.73755 8.93013 3.242 8.20278 2.6472C7.93729 2.36148 7.75154 2.01101 7.66414 1.63089C7.64507 1.44978 7.675 1.26688 7.75083 1.10131C7.82665 0.935733 7.94558 0.793575 8.09516 0.689701C8.24474 0.585826 8.41948 0.52405 8.60111 0.510835C8.78274 0.497621 8.96456 0.533452 9.1276 0.614582C10.0452 1.22561 10.9306 1.88369 11.7802 2.58621C12.8778 3.36877 14.1482 3.86678 15.3068 4.56803C16.4359 5.53442 17.347 6.72953 17.9797 8.0743C18.1626 8.35887 22.4921 14.7311 22.4921 14.7311Z" fill="white" stroke="#263238" stroke-linecap="round" stroke-linejoin="round"/>
</svg>
