<svg width="23" height="21" viewBox="0 0 23 21" fill="none" xmlns="http://www.w3.org/2000/svg">
<path d="M2.98274 1.56942C1.21543 4.80522 0.36484 8.46205 0.522684 12.1456C0.520552 12.4671 0.582229 12.7858 0.704156 13.0833C1.15785 13.9806 2.39798 13.9806 3.39611 14.0915C7.27776 14.5855 9.6874 18.6789 13.3472 20.0501C13.4755 20.1292 13.6184 20.1816 13.7675 20.2042C13.9165 20.2267 14.0685 20.2189 14.2145 20.1813C14.3604 20.1436 14.4973 20.0768 14.6168 19.985C14.7363 19.8932 14.836 19.7781 14.91 19.6468C16.5029 17.6304 17.0676 14.7973 19.2453 13.4967C20.193 12.9321 21.3928 12.7002 22.0482 11.8129C22.7943 10.8047 22.4615 9.35287 22.0986 8.12284C21.5037 6.10641 20.8383 4.00931 19.2957 2.60788C17.6523 1.32509 15.6335 0.616744 13.5489 0.591446C10.498 0.341776 7.42689 0.62842 4.47489 1.43836C4.51521 1.82149 2.98274 1.56942 2.98274 1.56942Z" fill="#9334EA" stroke="#263238" stroke-linecap="round" stroke-linejoin="round"/>
</svg>
