<svg width="26" height="37" viewBox="0 0 26 37" fill="none" xmlns="http://www.w3.org/2000/svg">
<path d="M25.4881 23.2684C24.9929 30.8178 21.5466 35.0624 17.5748 35.8103C13.9467 36.4773 8.64089 32.7784 5.99304 27.2907C5.79092 27.1593 2.56702 24.9258 1.79894 24.3801C1.39778 24.0994 1.07056 23.7257 0.845278 23.291C0.620001 22.8562 0.503377 22.3734 0.505339 21.8838C0.531019 21.414 0.696864 20.9626 0.981476 20.588C1.26609 20.2133 1.6564 19.9325 2.10212 19.7817H2.19307C2.64805 19.6826 3.12201 19.7177 3.55743 19.8828C2.89041 17.3057 2.34469 14.6881 1.93033 12.0504C2.12235 5.98662 4.13349 1.03455 10.6015 0.549448C17.0695 0.064346 22.4764 3.68239 22.7291 6.28981C22.911 8.31107 23.5679 13.6573 24.154 19.1854C24.3157 20.6205 25.5992 21.5705 25.4881 23.2684Z" fill="white" stroke="#263238" stroke-linecap="round" stroke-linejoin="round"/>
</svg>
