<svg width="25" height="28" viewBox="0 0 25 28" fill="none" xmlns="http://www.w3.org/2000/svg">
<path d="M2.60048 7.50332C1.86571 8.2232 1.35612 9.14119 1.13373 10.1455C0.531988 12.2697 0.357989 14.4921 0.621846 16.6841C0.885704 18.876 1.58217 20.9937 2.67081 22.9144C3.3405 22.8322 4.01909 22.8593 4.68007 22.9947C5.38331 23.1756 6.28747 24.3811 6.619 25.004C6.90968 25.668 7.0765 26.3796 7.11126 27.1037C6.95052 25.1949 6.79982 23.2961 6.63908 21.3873C6.53125 20.6241 6.56531 19.8476 6.73955 19.0968C7.23182 17.5295 6.68932 13.8325 6.82997 10.5273C10.9992 15.6207 17.0571 14.7166 19.0664 14.5458C22.0803 14.2946 24.6521 11.2104 24.4914 9.01027C24.3307 6.81013 23.7379 1.14402 13.8021 0.561335C11.6131 0.328377 9.4063 0.78872 7.49303 1.8774C6.88652 2.277 6.37151 2.80051 5.98191 3.41349C5.59231 4.02646 5.33694 4.715 5.23261 5.43378C5.09196 6.35804 5.44359 6.43841 4.74035 6.8905C4.03711 7.34258 3.29367 6.91059 2.60048 7.50332Z" fill="#263238" stroke="#263238" stroke-linecap="round" stroke-linejoin="round"/>
</svg>
