<svg width="120" height="104" viewBox="0 0 120 104" fill="none" xmlns="http://www.w3.org/2000/svg">
<path fill-rule="evenodd" clip-rule="evenodd" d="M115.55 23.2267C116.084 24.1511 116.564 25.0871 116.99 26.0347C117.417 27.0053 117.804 27.9876 118.15 28.9813C118.47 29.9982 118.763 31.0267 119.03 32.0667C119.27 33.0836 119.457 34.1236 119.59 35.1867C119.75 36.2729 119.857 37.3591 119.91 38.4453C119.99 39.5316 120.017 40.6293 119.99 41.7387C119.963 42.8249 119.897 43.9342 119.79 45.0667C119.683 46.176 119.537 47.2969 119.35 48.4293C119.163 49.5618 118.937 50.6942 118.67 51.8267C118.43 52.9591 118.137 54.0916 117.79 55.224C117.47 56.3564 117.097 57.4773 116.67 58.5867C116.27 59.7191 115.844 60.84 115.39 61.9493C114.91 63.0587 114.404 64.1564 113.871 65.2427C113.337 66.3289 112.764 67.4151 112.151 68.5013C111.564 69.5644 110.937 70.616 110.271 71.656C109.604 72.696 108.924 73.7244 108.231 74.7413C107.511 75.7582 106.764 76.752 105.991 77.7227C105.245 78.6933 104.458 79.6409 103.631 80.5653C102.831 81.5129 101.992 82.4258 101.112 83.304C100.258 84.2053 99.3784 85.0836 98.4718 85.9387C97.5652 86.7707 96.6453 87.5911 95.712 88.4C94.7521 89.1858 93.7789 89.96 92.7923 90.7227C91.8057 91.4622 90.8058 92.1787 89.7925 92.872C88.7793 93.5653 87.7394 94.224 86.6728 94.848C85.6329 95.4951 84.5796 96.1076 83.513 96.6853C82.4198 97.2631 81.3266 97.8062 80.2333 98.3147C79.1134 98.8231 77.9935 99.3084 76.8736 99.7707C75.7537 100.21 74.6071 100.626 73.4339 101.019C72.2873 101.412 71.1407 101.758 69.9942 102.059C68.8209 102.382 67.6477 102.66 66.4745 102.891C65.3012 103.122 64.1147 103.318 62.9148 103.48C61.7149 103.665 60.515 103.792 59.3151 103.861C58.1152 103.954 56.9153 104 55.7154 104C54.5155 104 53.3156 103.965 52.1157 103.896C50.9158 103.804 49.7159 103.688 48.516 103.549C47.3161 103.388 46.1162 103.191 44.9163 102.96C43.743 102.729 42.5698 102.463 41.3966 102.163C40.2233 101.862 39.0501 101.539 37.8768 101.192C36.7303 100.822 35.5837 100.418 34.4371 99.9787C33.3172 99.5396 32.2107 99.0773 31.1174 98.592C29.9975 98.0836 28.9043 97.552 27.8377 96.9973C26.7711 96.4427 25.7312 95.8649 24.7179 95.264C23.678 94.6631 22.6648 94.0276 21.6782 93.3573C20.6916 92.7102 19.745 92.0284 18.8384 91.312C17.9052 90.5956 16.9986 89.856 16.1187 89.0933C15.2387 88.3538 14.3855 87.5796 13.5589 86.7707C12.7323 85.9618 11.9457 85.1413 11.1991 84.3093C10.4525 83.4542 9.73252 82.5876 9.03925 81.7093C8.37264 80.8542 7.73269 79.9644 7.11941 79.04C6.50612 78.1387 5.93284 77.2142 5.39955 76.2667C4.89293 75.3191 4.41297 74.36 3.95967 73.3893C3.50637 72.4187 3.09308 71.4364 2.71977 70.4427C2.34647 69.4489 2.01317 68.4436 1.71986 67.4267C1.42655 66.4329 1.17324 65.416 0.95992 64.376C0.746605 63.3591 0.559953 62.3307 0.399967 61.2907C0.266644 60.2507 0.159987 59.1991 0.0799933 58.136C0.0266644 57.096 0 56.0444 0 54.9813C0 53.9413 0.0399967 52.8898 0.11999 51.8267C0.199983 50.7867 0.306641 49.7351 0.439963 48.672C0.59995 47.632 0.786601 46.592 0.999917 45.552C1.21323 44.512 1.45321 43.472 1.71986 42.432C2.01317 41.4151 2.33314 40.3982 2.67978 39.3813C3.02641 38.3644 3.41305 37.3591 3.83968 36.3653C4.23965 35.3716 4.69294 34.3778 5.19957 33.384C5.67953 32.4133 6.18615 31.4542 6.71944 30.5067C7.25273 29.5591 7.82601 28.6231 8.4393 27.6987C9.05258 26.7973 9.69253 25.9076 10.3591 25.0293C11.0257 24.128 11.7324 23.2613 12.479 22.4293C13.1989 21.5742 13.9455 20.7422 14.7188 19.9333C15.5187 19.1244 16.332 18.3271 17.1586 17.5413C17.9852 16.7787 18.8518 16.0276 19.7584 15.288C20.6383 14.5716 21.5449 13.8667 22.4781 13.1733C23.4114 12.48 24.3713 11.8213 25.3579 11.1973C26.3445 10.5502 27.3444 9.92622 28.3576 9.32533C29.3976 8.74755 30.4508 8.18134 31.5174 7.62667C32.5573 7.09512 33.6372 6.58667 34.7571 6.10133C35.8503 5.616 36.9703 5.15378 38.1168 4.71467C39.2367 4.27556 40.3833 3.87112 41.5565 3.50134C42.7298 3.10844 43.9163 2.75022 45.1162 2.42667C46.3161 2.12622 47.5294 1.83733 48.7559 1.56C49.9825 1.30578 51.2224 1.08623 52.4756 0.901337C53.7289 0.693336 54.9954 0.520004 56.2753 0.38134C57.5285 0.265778 58.8084 0.173332 60.115 0.103996C61.3949 0.0346603 62.6881 0 63.9947 0C65.3012 0 66.6078 0.0346603 67.9143 0.103996C69.2476 0.173332 70.5675 0.277336 71.874 0.416008C73.1806 0.531563 74.4871 0.693336 75.7937 0.901337C77.1002 1.08623 78.3935 1.30578 79.6734 1.56C80.9533 1.81422 82.2332 2.10311 83.513 2.42667C84.7663 2.75022 86.0062 3.09689 87.2327 3.46667C88.486 3.85956 89.7125 4.27556 90.9124 4.71467C92.0857 5.15378 93.2589 5.616 94.4321 6.10133C95.5787 6.58667 96.6986 7.10667 97.7919 7.66134C98.8851 8.216 99.9517 8.80534 100.992 9.42934C102.032 10.0302 103.045 10.6658 104.031 11.336C104.991 11.9831 105.925 12.6649 106.831 13.3813C107.738 14.0978 108.604 14.8489 109.431 15.6347C110.231 16.3973 111.004 17.1831 111.751 17.992C112.471 18.824 113.151 19.6676 113.791 20.5227C114.43 21.4009 115.017 22.3022 115.55 23.2267Z" fill="#9334EA" fill-opacity="0.5"/>
</svg>
