<svg width="65" height="133" viewBox="0 0 65 133" fill="none" xmlns="http://www.w3.org/2000/svg">
<path d="M37.4987 27.7609C37.4987 27.7609 34.4932 34.4532 34.4932 35.4149C34.4932 36.3767 51.0235 88.6124 55.8824 100.695C58.9547 108.476 61.663 116.437 64.0073 124.578C64.0073 124.578 65.8908 127.053 64.4682 129.588C63.0456 132.122 57.3852 133.785 56.223 131.521C55.0609 129.257 43.6099 117.495 38.7811 105.794C33.9522 94.0925 27.1598 74.5366 23.2927 67.2533C18.2276 57.9465 13.7311 48.3413 9.82801 38.4906C4.96911 26.0578 0 12.6532 0 12.6532C2.01826 12.835 4.04584 12.8919 6.07113 12.8235C10.8401 12.6609 15.5622 11.8244 20.0968 10.339C30.6562 6.79246 35.2246 0 35.2246 0C35.2246 0 37.8394 7.08299 38.5206 8.4555L37.4987 27.7609Z" fill="#263238"/>
</svg>
