<svg width="424" height="370" viewBox="0 0 424 370" fill="none" xmlns="http://www.w3.org/2000/svg">
<path d="M53.5625 79.3344C123.754 -0.533545 244.262 -13.8265 297.985 11.8278C318.859 21.7193 338.168 34.6223 355.294 50.124C357.538 52.1274 359.718 54.1877 361.835 56.3046C368.445 62.8155 374.645 69.7307 380.397 77.0104C387.292 85.7188 393.511 94.9415 398.999 104.598C406.864 118.34 413.093 132.954 417.561 148.143C420.518 158.109 422.457 168.349 423.351 178.706C424.884 198.15 423.552 217.774 420.937 237.057C420.697 238.9 420.436 240.743 420.156 242.586C420.086 243.097 420.016 243.588 419.935 244.119C417.06 263.322 412.993 282.696 403.908 299.445C393.991 317.746 359.391 368.524 321.866 369.836C302.402 370.527 285.213 357.815 267.572 348.8C239.524 334.495 207.779 331.69 176.825 330.859C145.872 330.027 114.538 330.919 84.3757 323.246C54.2136 315.572 24.6426 297.952 9.22594 268.661C3.98689 258.704 0.0100173 244.359 0 232.88C0 199.011 5.52955 169.39 15.1862 143.656C18.2527 135.45 21.8292 127.444 25.8947 119.684C31.8497 108.306 38.8663 97.5164 46.8509 87.4585L53.5625 79.3344Z" fill="#9334EA"/>
</svg>
